# xmcd CD database file
#
# Track frame offsets:
#	182
#	15132
#	40442
#	53130
#	70100
#	84905
#	100960
#	118115
#	130350
#	143110
#
# Disc length: 2126 seconds
#
# Revision: 7
# Processed by: cddbd v1.5.2PL0 Copyright (c) Steve Scherf et al.
# Submitted via: CDex 2.02
#
DISCID=80084c0a
DTITLE=Ray Stevens - His All-Time Greatest Comic Hits
DYEAR=1990
DGENRE=Comedy
TTITLE0=The Streak
TTITLE1=Shriner's Convention
TTITLE2=Would Jesus Wear a Rolex?
TTITLE3=Mississippi Squirrel Revival
TTITLE4=Gitarzan
TTITLE5=It's Me Again, Margaret
TTITLE6=Ahab, the Arab
TTITLE7=In the Mood
TTITLE8=Freddie Feelgood
TTITLE9=Bridget the Midget
EXTD=YEAR: 1990
EXTT0=
EXTT1=
EXTT2=
EXTT3=
EXTT4=
EXTT5=
EXTT6=
EXTT7=
EXTT8=
EXTT9=
PLAYORDER=
